<svg width="291" height="46" viewBox="0 0 291 46" fill="none" xmlns="http://www.w3.org/2000/svg">
<path d="M0.449707 35.2749V31.1001C3.96533 32.77 7.15869 33.605 10.0298 33.605C11.231 33.605 12.3809 33.3779 13.4795 32.9238C14.5781 32.4551 15.4058 31.7886 15.9624 30.9243C16.5337 30.0601 16.8193 29.1226 16.8193 28.1118C16.8193 26.9253 16.4312 25.8193 15.6548 24.7939C14.8784 23.7539 13.4209 22.6113 11.2822 21.3662L9.04102 20.0698L6.77783 18.7734C2.79346 16.415 0.80127 13.4854 0.80127 9.98438C0.80127 7.4209 1.6875 5.26758 3.45996 3.52441C5.24707 1.7666 8.03027 0.887695 11.8096 0.887695C14.2412 0.887695 16.5923 1.23926 18.8628 1.94238V5.74365C16.3579 4.77686 13.9189 4.29346 11.5459 4.29346C9.65625 4.29346 8.12549 4.7915 6.95361 5.7876C5.79639 6.78369 5.21777 7.98486 5.21777 9.39111C5.21777 10.7827 5.66455 11.9399 6.55811 12.8628C7.45166 13.7856 8.59424 14.6353 9.98584 15.4116L11.6997 16.4443L13.8311 17.7407L15.6328 18.7954C19.3682 21.0806 21.2358 23.9517 21.2358 27.4087C21.2358 30.0454 20.2764 32.3086 18.3574 34.1982C16.4385 36.0879 13.3623 37.0327 9.12891 37.0327C7.78125 37.0327 6.49219 36.9155 5.26172 36.6812C4.0459 36.4614 2.44189 35.9927 0.449707 35.2749ZM47.8447 34.374C44.5781 35.9268 41.4873 36.7031 38.5723 36.7031C36.3604 36.7031 34.3828 36.1538 32.6396 35.0552C30.8965 33.9565 29.4976 32.3892 28.4429 30.353C27.4028 28.3022 26.8828 26.1123 26.8828 23.7832C26.8828 21.542 27.3809 19.3887 28.377 17.3232C29.373 15.2578 30.7646 13.6538 32.5518 12.5112C34.3389 11.354 36.3311 10.7754 38.5283 10.7754C41.4434 10.7754 43.7798 11.8154 45.5376 13.8955C47.3101 15.9756 48.1963 19.1836 48.1963 23.5195V24.3984H31.2773C31.2773 26.0977 31.6289 27.6504 32.332 29.0566C33.0498 30.4629 33.9873 31.5176 35.1445 32.2207C36.3018 32.9238 37.6201 33.2754 39.0996 33.2754C41.7363 33.2754 44.6514 32.3965 47.8447 30.6387V34.374ZM31.519 21.3442H43.7578V20.751C43.7578 18.7441 43.2671 17.1475 42.2856 15.9609C41.3042 14.7744 39.9932 14.1812 38.3525 14.1812C36.6973 14.1812 35.2617 14.7891 34.0459 16.0049C32.8447 17.2061 32.0024 18.9858 31.519 21.3442ZM58.2378 16.9717C59.4976 14.9209 60.999 13.3755 62.7422 12.3354C64.4854 11.2954 66.0894 10.7754 67.5542 10.7754C69.605 10.7754 71.4507 11.6616 73.0913 13.4341C74.7319 15.2065 75.5522 17.8945 75.5522 21.498C75.5522 24.3398 75.0029 26.8813 73.9043 29.1226C72.8203 31.3491 71.3701 33.1143 69.5537 34.418C67.7373 35.707 65.4888 36.3516 62.8081 36.3516C62.0464 36.3516 60.8745 36.271 59.2925 36.1099C59.0581 36.0806 58.7065 36.0439 58.2378 36V45.5361H54.1509V11.4565H58.2378V16.9717ZM58.2378 21.8276V32.3525C59.7173 32.7334 61.0796 32.9238 62.3247 32.9238C64.8003 32.9238 66.8804 31.957 68.5649 30.0234C70.2642 28.0752 71.1138 25.4165 71.1138 22.0474C71.1138 19.6011 70.6523 17.7627 69.7295 16.5322C68.8066 15.3018 67.7593 14.6865 66.5874 14.6865C65.313 14.6865 63.9067 15.3311 62.3687 16.6201C60.8452 17.9092 59.4683 19.645 58.2378 21.8276ZM102.007 35.0112C100.088 35.8169 98.6968 36.293 97.8325 36.4395C96.9683 36.6006 96.1333 36.6812 95.3276 36.6812C93.6138 36.6812 92.0464 36.3516 90.6255 35.6924C89.2046 35.0332 88.1279 34.0591 87.3955 32.77C86.6777 31.481 86.3188 29.4888 86.3188 26.7935V16.9058H80.1885V13.5H86.3188V3.6123H90.4058V13.5H101.326V16.9058H90.4058V26.7275C90.4058 28.7051 90.6401 30.104 91.1089 30.9243C91.5776 31.73 92.2002 32.3232 92.9766 32.7041C93.7676 33.085 94.6978 33.2754 95.7671 33.2754C97.7446 33.2754 99.8247 32.6528 102.007 31.4077V35.0112ZM128.924 34.374C125.657 35.9268 122.566 36.7031 119.651 36.7031C117.439 36.7031 115.462 36.1538 113.719 35.0552C111.976 33.9565 110.577 32.3892 109.522 30.353C108.482 28.3022 107.962 26.1123 107.962 23.7832C107.962 21.542 108.46 19.3887 109.456 17.3232C110.452 15.2578 111.844 13.6538 113.631 12.5112C115.418 11.354 117.41 10.7754 119.607 10.7754C122.522 10.7754 124.859 11.8154 126.617 13.8955C128.389 15.9756 129.275 19.1836 129.275 23.5195V24.3984H112.356C112.356 26.0977 112.708 27.6504 113.411 29.0566C114.129 30.4629 115.066 31.5176 116.224 32.2207C117.381 32.9238 118.699 33.2754 120.179 33.2754C122.815 33.2754 125.73 32.3965 128.924 30.6387V34.374ZM112.598 21.3442H124.837V20.751C124.837 18.7441 124.346 17.1475 123.365 15.9609C122.383 14.7744 121.072 14.1812 119.432 14.1812C117.776 14.1812 116.341 14.7891 115.125 16.0049C113.924 17.2061 113.082 18.9858 112.598 21.3442ZM133.692 36V11.4565H137.273V17.0815C138.401 14.6938 139.449 13.0459 140.416 12.1377C141.397 11.2295 142.386 10.7754 143.382 10.7754C144.568 10.7754 145.521 11.2441 146.238 12.1816C146.971 13.1045 147.337 14.4229 147.337 16.1367V17.4551C147.82 15.9609 148.399 14.7524 149.073 13.8296C149.761 12.8921 150.472 12.1523 151.204 11.6104C151.937 11.0537 152.779 10.7754 153.731 10.7754C154.786 10.7754 155.687 11.2222 156.434 12.1157C157.181 13.0093 157.554 14.7891 157.554 17.4551V36H153.973V19.2349C153.973 17.8579 153.929 16.9204 153.841 16.4224C153.753 15.9097 153.577 15.5215 153.313 15.2578C153.05 14.9941 152.764 14.8623 152.457 14.8623C151.695 14.8623 150.875 15.4482 149.996 16.6201C149.131 17.7773 148.245 19.7036 147.337 22.3989V36H143.909V19.2568C143.909 17.0889 143.697 15.8145 143.272 15.4336C142.847 15.0527 142.466 14.8623 142.129 14.8623C141.382 14.8623 140.577 15.5142 139.712 16.8179C138.863 18.1216 138.05 19.7915 137.273 21.8276V36H133.692ZM166.343 16.9717C167.603 14.9209 169.104 13.3755 170.848 12.3354C172.591 11.2954 174.195 10.7754 175.66 10.7754C177.71 10.7754 179.556 11.6616 181.197 13.4341C182.837 15.2065 183.658 17.8945 183.658 21.498C183.658 24.3398 183.108 26.8813 182.01 29.1226C180.926 31.3491 179.476 33.1143 177.659 34.418C175.843 35.707 173.594 36.3516 170.914 36.3516C170.152 36.3516 168.98 36.271 167.398 36.1099C167.164 36.0806 166.812 36.0439 166.343 36H162.256V0.536133H166.343V16.9717ZM166.343 21.8276V32.3525C167.823 32.7334 169.185 32.9238 170.43 32.9238C172.906 32.9238 174.986 31.957 176.67 30.0234C178.37 28.0752 179.219 25.4165 179.219 22.0474C179.219 19.6011 178.758 17.7627 177.835 16.5322C176.912 15.3018 175.865 14.6865 174.693 14.6865C173.418 14.6865 172.012 15.3311 170.474 16.6201C168.951 17.9092 167.574 19.645 166.343 21.8276ZM210.003 34.374C206.736 35.9268 203.646 36.7031 200.73 36.7031C198.519 36.7031 196.541 36.1538 194.798 35.0552C193.055 33.9565 191.656 32.3892 190.601 30.353C189.561 28.3022 189.041 26.1123 189.041 23.7832C189.041 21.542 189.539 19.3887 190.535 17.3232C191.531 15.2578 192.923 13.6538 194.71 12.5112C196.497 11.354 198.489 10.7754 200.687 10.7754C203.602 10.7754 205.938 11.8154 207.696 13.8955C209.468 15.9756 210.354 19.1836 210.354 23.5195V24.3984H193.436C193.436 26.0977 193.787 27.6504 194.49 29.0566C195.208 30.4629 196.146 31.5176 197.303 32.2207C198.46 32.9238 199.778 33.2754 201.258 33.2754C203.895 33.2754 206.81 32.3965 210.003 30.6387V34.374ZM193.677 21.3442H205.916V20.751C205.916 18.7441 205.425 17.1475 204.444 15.9609C203.462 14.7744 202.151 14.1812 200.511 14.1812C198.855 14.1812 197.42 14.7891 196.204 16.0049C195.003 17.2061 194.161 18.9858 193.677 21.3442ZM218.704 36V11.4565H222.791V16.8179C224.065 14.7964 225.523 13.2876 227.164 12.2915C228.819 11.2808 230.657 10.7754 232.679 10.7754C234.158 10.7754 235.638 11.0024 237.117 11.4565V20.3115H233.184V14.7085C232.496 14.5913 231.954 14.5327 231.558 14.5327C230.035 14.5327 228.541 15.1333 227.076 16.3345C225.611 17.5356 224.183 19.3374 222.791 21.7397V36H218.704Z" fill="black"/>
<path d="M243.006 1.89844H247.444V24.2886C247.444 27.2329 247.686 29.2471 248.169 30.3311C248.667 31.4004 249.422 32.2207 250.433 32.792C251.458 33.3486 252.593 33.627 253.838 33.627C255.157 33.627 256.329 33.3267 257.354 32.7261C258.394 32.1108 259.156 31.1587 259.639 29.8696C260.137 28.5659 260.386 26.127 260.386 22.5527V1.89844H264.473V24.1567C264.473 27.3354 263.997 29.8257 263.045 31.6274C262.107 33.4146 260.877 34.7622 259.354 35.6704C257.83 36.5786 255.911 37.0327 253.597 37.0327C251.458 37.0327 249.576 36.6372 247.95 35.8462C246.324 35.0552 245.093 33.8687 244.258 32.2866C243.423 30.7046 243.006 27.8481 243.006 23.7173V1.89844ZM271.043 36V32.5942H278.536V5.32617H271.043V1.89844H290.467V5.32617H282.974V32.5942H290.467V36H271.043Z" fill="#3182CE"/>
</svg>